<?xml version="1.0" encoding="UTF-8"?>
<svg viewBox="0 0 1205.324 994.3703" xmlns="http://www.w3.org/2000/svg">
 <path transform="matrix(1.0672 0 0 1.0488 -216.18 -129.35)" d="m1049.4 540.98a301.71 271.31 0 1 1 -603.42 0 301.71 271.31 0 1 1 603.42 0z" fill="#28170b"/>
 <g transform="translate(-44.369 -5.9087)" fill="#e4dcbb">
  <path transform="translate(76.283 70.056)" d="m507.52 314.9c0 9.4578-13.546 17.125-22.574 17.125s-16.736-8.8347-16.736-18.292 13.935-13.622 22.963-13.622 16.346 5.3318 16.346 14.79z"/>
  <path d="m451.21 356.08c0 8.4942-6.7025 18.249-14.97 21.788s-14.97-0.47754-14.97-8.9717 6.7025-18.249 14.97-21.788 14.97 0.47751 14.97 8.9717z"/>
  <path d="m558.48 330.47c-3.6267 7.1459-14.048 13.457-23.277 14.095s-13.77-4.6363-10.143-11.782 14.048-13.457 23.277-14.095 13.77 4.6363 10.143 11.782z"/>
  <path d="m632.34 347.82c-1.8453 4.9783-9.4787 8.912-17.05 8.7862s-12.213-4.2635-10.367-9.2418 9.4787-8.912 17.05-8.7862 12.213 4.2635 10.367 9.2418z"/>
  <path d="m672.54 315.19c0 5.5887-7.1448 10.119-15.958 10.119s-15.958-4.5305-15.958-10.119 7.1448-10.119 15.958-10.119 15.958 4.5305 15.958 10.119z"/>
  <path d="m737.23 339.36c2.3461 5.1283-2.4086 9.2857-10.62 9.2857s-16.77-4.1573-19.116-9.2857 2.4086-9.2857 10.62-9.2857 16.77 4.1573 19.116 9.2857z"/>
  <path d="m754.27 446.45c0 5.8037-6.97 10.508-15.568 10.508s-15.568-4.7048-15.568-10.508 6.9701-10.508 15.568-10.508 15.568 4.7048 15.568 10.508z"/>
  <path d="m799.42 410.28c0 10.551-6.7087 17.52-14.984 15.566s-14.984-12.091-14.984-22.641 6.7087-17.52 14.984-15.566 14.984 12.091 14.984 22.641z"/>
  <path d="m518.42 616.01c0 7.9942-8.394 10.463-18.748 5.5142s-18.748-15.441-18.748-23.435 8.394-10.463 18.748-5.5142 18.748 15.441 18.748 23.435z"/>
  <path d="m560.45 590.19c0 8.393-8.7126 14.269-19.46 13.125s-19.46-8.8762-19.46-17.269 8.7126-14.269 19.46-13.125 19.46 8.8762 19.46 17.269z"/>
  <path d="m514.52 548.96c0 8.5114-7.4057 14.211-16.541 12.731s-16.541-9.5801-16.541-18.091 7.4057-14.211 16.541-12.731 16.541 9.5801 16.541 18.091z"/>
  <path d="m462.56 553.11c0 9.8877-8.0156 15.812-17.903 13.233s-17.903-12.686-17.903-22.574 8.0156-15.812 17.903-13.233 17.903 12.686 17.903 22.574z"/>
  <path d="m472.88 497.43c0 6.4485-5.2275 11.676-11.676 11.676s-11.676-5.2275-11.676-11.676 5.2275-11.676 11.676-11.676 11.676 5.2275 11.676 11.676z"/>
  <path d="m498.18 481.86c0 7.3083-5.2275 13.233-11.676 13.233s-11.676-5.9246-11.676-13.233 5.2275-13.233 11.676-13.233 11.676 5.9245 11.676 13.233z"/>
  <path transform="matrix(1 .25 0 1 .7784 -138.56)" d="m535.54 453.84c0 10.748-7.5857 14.984-17.903 14.984s-12.454-7.545-12.454-18.292 6.0289-15.763 16.346-15.763 14.011 8.3234 14.011 19.071z"/>
  <path d="m601.71 431.6c0 9.2448-6.6215 15.717-14.79 14.457s-14.79-9.777-14.79-19.022 6.6216-15.717 14.79-14.457 14.79 9.777 14.79 19.022z"/>
  <path d="m839.27 449.39c1.6959 8.0999-1.8754 15.702-7.9766 16.979s-12.422-4.2533-14.118-12.353 1.8754-15.702 7.9766-16.979 12.422 4.2533 14.118 12.353z"/>
  <path d="m879.07 426.31c1.3884 9.2808-3.0007 17.629-9.8034 18.647s-13.443-5.6808-14.831-14.962 3.0007-17.629 9.8034-18.647 13.443 5.6808 14.831 14.962z"/>
  <path d="m688.57 650.03c-3.0202 6.5424-12.995 10.961-22.279 9.8687s-14.362-7.2812-11.341-13.824 12.995-10.961 22.279-9.8686 14.362 7.2812 11.341 13.824z"/>
  <path d="m739.48 582.04c0 7.6551-6.6216 11.702-14.79 9.0396s-14.79-11.027-14.79-18.682 6.6216-11.702 14.79-9.0396 14.79 11.027 14.79 18.682z"/>
  <path d="m783.24 529.23c3.2827 7.7275-0.92621 17.875-9.4008 22.665s-18.006 2.4084-21.288-5.3191 0.9262-17.875 9.4008-22.665 18.006-2.4084 21.288 5.3191z"/>
  <path d="m563.56 542.1c0 7.1355-6.5344 11.044-14.595 8.7297s-14.595-9.9747-14.595-17.11 6.5344-11.044 14.595-8.7297 14.595 9.9747 14.595 17.11z"/>
  <path d="m578.11 476.95c-1.8058 6.6371-10.552 10.036-19.536 7.592s-14.803-9.806-12.997-16.443 10.552-10.036 19.536-7.592 14.803 9.806 12.997 16.443z"/>
  <path d="m691.53 443.72c2.4909 8.598-1.0428 15.568-7.8929 15.568s-14.422-6.97-16.913-15.568 1.0428-15.568 7.8929-15.568 14.422 6.9701 16.913 15.568z"/>
  <path d="m625.01 686.83c-4.5715 7.2059-16.41 8.6505-26.443 3.2265s-14.459-15.662-9.8879-22.868 16.41-8.6505 26.443-3.2265 14.459 15.662 9.8879 22.868z"/>
  <path d="m470.25 641.62c0 7.4706-9.2054 8.4268-20.561 2.1358s-20.561-17.447-20.561-24.917 9.2054-8.4268 20.561-2.1358 20.561 17.447 20.561 24.917z"/>
  <path d="m436.74 488.87c0 8.598-5.2275 15.568-11.676 15.568s-11.676-6.97-11.676-15.568 5.2275-15.568 11.676-15.568 11.676 6.9701 11.676 15.568z"/>
  <path d="m717.23 394.63c0 6.021-6.273 10.902-14.011 10.902s-14.011-4.881-14.011-10.902 6.273-10.902 14.011-10.902 14.011 4.881 14.011 10.902z"/>
  <path d="m668.65 369.76c0 4.5237-6.6216 9.6014-14.79 11.341s-14.79-0.51684-14.79-5.0406 6.6216-9.6014 14.79-11.341 14.79 0.51685 14.79 5.0406z"/>
  <path d="m635.96 389.62c0 6.8784-4.5305 14.197-10.119 16.346s-10.119-1.684-10.119-8.5624 4.5305-14.197 10.119-16.346 10.119 1.684 10.119 8.5624z"/>
  <path transform="matrix(1 -.57143 0 1 0 462.59)" d="m820.44 484.98c0 7.3083-4.879 13.233-10.898 13.233s-10.898-5.9246-10.898-13.233 4.879-13.233 10.898-13.233 10.898 5.9246 10.898 13.233z"/>
  <path d="m789.5 588.37c3.8677 7.8345-0.0372 18.861-8.7221 24.629s-18.861 4.0921-22.728-3.7424 0.0373-18.861 8.7221-24.629 18.861-4.0921 22.728 3.7424z"/>
  <path d="m768.64 634.87c2.4994 6.4082-1.968 14.136-9.9783 17.26s-16.53 0.46209-19.029-5.9461 1.968-14.136 9.9783-17.26 16.53-0.46208 19.029 5.9461z"/>
  <path d="m735.1 648.44c0 7.3083-7.0335 13.233-15.71 13.233s-15.71-5.9245-15.71-13.233 7.0335-13.233 15.71-13.233 15.71 5.9246 15.71 13.233z"/>
  <path transform="matrix(1 .4 0 1 7.784 -335.65)" d="m831.33 365.88c0 8.598-5.2275 15.568-11.676 15.568s-11.676-6.97-11.676-15.568 5.2275-15.568 11.676-15.568 11.676 6.9701 11.676 15.568z"/>
  <path d="m714.9 479.36c5.4947 6.0272 5.7945 12.034 0.66978 13.415s-13.734-2.3838-19.228-8.4111-5.7945-12.034-0.66975-13.415 13.733 2.3838 19.228 8.4111z"/>
  <path d="m621.88 468.74c-1.3246 6.0641-8.6427 10.293-16.345 9.4446s-12.873-6.4513-11.549-12.515 8.6426-10.293 16.345-9.4446 12.873 6.4513 11.549 12.515z"/>
  <path d="m668.65 599.35c0 7.5646-4.5305 13.697-10.119 13.697s-10.119-6.1323-10.119-13.697 4.5305-13.697 10.119-13.697 10.119 6.1323 10.119 13.697z"/>
  <path d="m730.33 533.24c0.4299 6.4485-3.4036 11.676-8.5624 11.676s-9.6893-5.2275-10.119-11.676 3.4036-11.676 8.5624-11.676 9.6894 5.2275 10.119 11.676z"/>
  <path d="m704.45 564.37c0 4.7289-3.3979 8.5624-7.5894 8.5624s-7.5894-3.8335-7.5894-8.5624 3.3979-8.5624 7.5894-8.5624 7.5894 3.8335 7.5894 8.5624z"/>
  <path d="m526.59 393.9c0 5.1588-4.4084 11.287-11.287 11.287s-5.4488-6.128-5.4488-11.287-1.4296-9.3408 5.4488-9.3408 11.287 4.182 11.287 9.3408z"/>
  <path transform="matrix(1 -.53333 0 1 -4.6704 252.41)" d="m495.06 413.7c1.5568 6.3147 0.61047 21.406-5.838 21.406s-15.957-9.2534-15.957-17.851 1.7247-17.436 8.1732-17.436 11.287 5.5949 13.622 13.882z"/>
  <path d="m763.55 374.75c0 5.1588-5.2275 9.3408-11.676 9.3408s-11.676-4.182-11.676-9.3408 5.2275-9.3408 11.676-9.3408 11.676 4.182 11.676 9.3408z"/>
  <path d="m470.93 301.27c0 4.839-4.9662 11.377-11.092 14.603s-11.092 1.9184-11.092-2.9206 4.9662-11.377 11.092-14.603 11.092-1.9184 11.092 2.9206z"/>
  <path d="m845.67 617.49c-3.4508 8.1903-12.682 16.713-20.619 19.037s-11.573-2.4326-8.1226-10.623 12.682-16.713 20.619-19.037 11.573 2.4326 8.1226 10.623z"/>
  <path transform="matrix(1 -.64 0 1 0 562.44)" d="m898.28 637.54c0 10.748-8.7126 19.46-19.46 19.46s-19.46-8.7126-19.46-19.46 8.7126-19.46 19.46-19.46 19.46 8.7126 19.46 19.46z"/>
  <path d="m842.23 529.2c0 10.049-7.3876 20.803-16.501 24.019s-16.501-2.3239-16.501-12.373 7.3876-20.803 16.501-24.019 16.501 2.3239 16.501 12.373z"/>
  <path d="m906.45 540.24c0 10.533-6.3602 19.071-14.206 19.071s-14.206-8.5383-14.206-19.071 6.3602-19.071 14.206-19.071 14.206 8.5383 14.206 19.071z"/>
  <path d="m858.58 475.56c0 6.9386-3.9207 14.34-8.757 16.531s-8.757-1.6574-8.757-8.596 3.9206-14.34 8.757-16.531 8.757 1.6574 8.757 8.596z"/>
  <path d="m617.66 719.28c0 3.4392-6.9701 6.2272-15.568 6.2272s-15.568-2.788-15.568-6.2272 6.97-6.2272 15.568-6.2272 15.568 2.788 15.568 6.2272z"/>
  <path d="m706.24 687.36c0 3.8691-5.9246 7.3541-13.233 7.784s-13.233-2.3581-13.233-6.2272 5.9245-7.3541 13.233-7.784 13.233 2.3581 13.233 6.2272z"/>
  <path d="m757.49 666.75c1.7121 4.8265-4.9638 10.463-14.911 12.59s-19.399-0.062-21.111-4.8885 4.9638-10.463 14.911-12.59 19.399 0.062 21.111 4.8885z"/>
  <path d="m634.8 627.21c1.1472 5.874-5.3359 10.208-14.481 9.6803s-17.488-5.7172-18.635-11.591 5.3359-10.208 14.481-9.6803 17.488 5.7172 18.635 11.591z"/>
  <path d="m587.05 632.46c0 4.299-5.7503 6.39-12.844 4.6704s-12.844-6.5986-12.844-10.898 5.7503-6.39 12.844-4.6704 12.844 6.5986 12.844 10.898z"/>
  <path d="m556.42 631.05c4.8386 5.1466 4.1124 10.278-1.6219 11.462s-14.305-2.0286-19.144-7.1752-4.1124-10.278 1.6219-11.462 14.305 2.0286 19.144 7.1752z"/>
  <path transform="matrix(1 0 .83333 1 -546.72 -3.1136)" d="m568.23 661.67c0 5.1588-6.9701 9.3408-15.568 9.3408s-15.568-4.182-15.568-9.3408 6.97-9.3408 15.568-9.3408 15.568 4.182 15.568 9.3408z"/>
  <path d="m530.79 659.13c2.6477 7.2711-0.74446 12.215-7.5765 11.043s-14.517-8.0171-17.165-15.288 0.74446-12.215 7.5765-11.043 14.517 8.0171 17.165 15.288z"/>
  <path d="m510.02 310.57c-1.4987 5.0091-9.3234 11.095-17.477 13.593s-13.548 0.46267-12.05-4.5464 9.3234-11.095 17.477-13.593 13.548-0.46269 12.05 4.5464z"/>
  <path d="m761.89 278.22c5.0256 4.881 2.8156 10.098-4.9361 11.653s-18.11-1.1419-23.135-6.023-2.8156-10.098 4.936-11.653 18.11 1.142 23.135 6.023z"/>
  <path d="m869.06 322.83c0 5.9763-3.7103 7.7931-8.2872 4.0579s-8.2872-11.608-8.2872-17.584 3.7103-7.7931 8.2872-4.0579 8.2872 11.608 8.2872 17.584z"/>
  <path d="m669.82 719.38c0 3.2827-5.576 6.8152-12.454 7.8899s-12.454-0.71517-12.454-3.9979 5.576-6.8152 12.454-7.8899 12.454 0.71517 12.454 3.9979z"/>
  <path d="m647.35 700.77c0 3.539-3.6856 6.408-8.2319 6.408s-8.2319-2.869-8.2319-6.408 3.6856-6.408 8.2319-6.408 8.2319 2.869 8.2319 6.408z"/>
  <path d="m655.02 674.33c0.71946 2.5313-3.1366 5.8451-8.6127 7.4016s-10.499 0.76619-11.218-1.7651 3.1366-5.8451 8.6127-7.4016 10.499-0.7662 11.218 1.7651z"/>
 </g>
 <g transform="translate(-44.369 -5.9087)">
  <path d="m389.2 388.45c-3.892-0.7784-286.45-45.147-286.45-45.147l272.44 70.056c9.8086-6.8349 11.102-16.103 14.011-24.909z" fill="#ca8276"/>
  <path d="m382.2 409.47-247.53-45.926 240.53 68.499c6.6249-6.9883 8.6817-14.548 7.0056-22.574z" fill="#cb8377"/>
  <path d="m340.16 431.27c-3.1136-0.7784-262.32-17.903-262.32-17.903l259.21 38.92 3.1136-21.017z" fill="#6c453e"/>
  <path d="m357.29 444.5-274.78 7.0056 273.22 22.574c1.8245-9.8598 8.2246-19.72 1.5568-29.579z" fill="#d28c84"/>
  <path d="m382.97 461.62c-4.6704 0-265.44 21.017-265.44 21.017l266.21 7.0056c6.0342-9.3408 2.2173-18.682-0.7784-28.022z" fill="#975f52"/>
  <path d="m371.3 492.76c-5.4488 0-195.38 2.3352-195.38 2.3352l200.83 10.898-5.4488-13.233z" fill="#d08975"/>
  <path d="m400.1 494.32-201.61 10.119 196.94 7.0056c10.245-5.7083 3.6286-11.417 4.6704-17.125z" fill="#9d6156"/>
  <path d="m370.52 593.17c-3.892 0-172.03 129.21-172.03 129.21l186.82-115.98-14.79-13.233z" fill="#efb1a4"/>
  <path d="m565.36 720.11-82.755 217.12 96.169-213.5c-4.1752-2.3897-8.51-4.1407-13.414-3.6168z" fill="#d58b88"/>
  <path d="m616.3 727.25-58.186 254.34 43.201-255.71 14.984 1.3622z" fill="#c47873"/>
  <path d="m612.6 721.61-73.948 278.67 54.488-283.34c7.1569 0.81957 17-1.3153 19.46 4.6704z" fill="#cf8d7f"/>
  <path d="m493.12 693.98-155.29 187.21 167.55-177.28c-0.77695-4.1846-1.9067-9.7497-12.26-9.9246z" fill="#da9993"/>
  <path d="m492.73 677.24-188.37 210.95 201.61-203.16-13.233-7.784z" fill="#ab6e5c"/>
  <path d="m501.29 681.13c-10.119 5.4488-208.61 245.98-208.61 242.86s224.96-235.08 224.96-235.08l-16.346-7.784z" fill="#996a6b"/>
  <path d="m488.06 670.24-142.45 122.21 164.24-112.09-21.795-10.119z" fill="#c08283"/>
  <path d="m375.19 641.44-217.17 204.72 245.2-191.49-28.022-13.233z" fill="#ae7b77"/>
  <path d="m385.42 625.49-197.82 138.16 212.35-122.68c2.6052-5.1682-2.6556-15-14.523-15.474z" fill="#e3afa2"/>
  <path d="m468.6 642.99-154.12 148.67 166.58-139.33c-0.42022-6.0986-4.6958-9.113-12.454-9.3408z" fill="#b96d60"/>
  <path d="m404.77 626.65-200.83 168.13 213.28-154.12-12.454-14.011z" fill="#d498a2"/>
  <path d="m407.1 586.17-151.79 129.99 163.46-111.31-11.676-18.682z" fill="#a2666a"/>
  <path d="m381.42 568.27c-3.1136 0.7784-179.81 139.33-179.81 139.33l196.94-126.1-17.125-13.233z" fill="#e0aa9e"/>
  <path d="m396.99 586.95c-5.4488 2.3352-165.8 133.11-165.8 133.11l189.15-117.54c1.7247-13.43-9.6958-15.468-23.352-15.568z" fill="#cf9a94"/>
  <path d="m391.54 564.37c-7.0056 1.5568-229.63 73.948-229.63 73.948l236.63-53.71-7.0056-20.238z" fill="#c28886"/>
  <path d="m342.5 524.67-298.13 49.818 302.8-21.795c0.3289-9.3408 3.7264-18.682-4.6704-28.022z" fill="#a36f71"/>
  <path d="m381.42 528.57-293.46 96.522 304.36-61.494c8.562-13.797 4.4091-25.382-10.898-35.028z" fill="#b27269"/>
  <path d="m403.99 578.38-188.37 140.89 200.83-122.99c0.82761-8.6836-1.9031-15.426-12.454-17.903z" fill="#e6a796"/>
  <path d="m395.43 558.15c-3.892 1.5568-230.41 111.31-230.41 111.31l243.64-97.3-13.233-14.011z" fill="#db9e8b"/>
  <path d="m375.97 428.15-304.36-42.812 302.02 62.272 2.3352-19.46z" fill="#915346"/>
  <path d="m714.96 718.11 36.974 254.15-48.65-253.76c3.481-2.3146 7.1662-1.6623 11.676-0.3892z" fill="#c77e78"/>
  <path d="m728 711.69 52.737 244.22-72.391-240.72c5.951-3.1325 13.198-2.8964 19.655-3.5028z" fill="#a7635a"/>
  <path d="m703.48 688.33 19.655 172.61-47.483-169.69c9.0208-6.0768 18.288-7.2204 27.828-2.919z" fill="#b07273"/>
  <path d="m683.83 725.11c0 3.892 17.514 269.72 17.514 269.72l-40.088-267.77c7.1752-0.54999 14.92-5.7052 22.574-1.946z" fill="#eba8a0"/>
  <path d="m772.95 702.15 108.98 227.29-96.522-235.08c-4.9386 1.414-11.374 0.58343-12.454 7.784z" fill="#b57168"/>
  <path d="m855.46 693.59c10.119 8.5624 164.24 187.6 164.24 187.6l-173.58-176.7c2.7757-4.0042 1.9634-11.955 9.3408-10.898z" fill="#965746"/>
  <path d="m813.49 674.86c5.4488 2.3352 194.54 222.67 194.54 222.67-54.229-69.797-129.65-175.51-177.55-235.81-7.3808 1.8662-15.781 3.5587-16.991 13.138z" fill="#7c463c"/>
  <path d="m798 684.55 150.1 184.18-133.07-197.86c-8.1217 2.6909-14.49 4.4018-17.03 13.689z" fill="#cd8473"/>
  <path d="m769.84 670.24 140.11 231.96-121.43-245.2c-8.8942-0.33035-14.436 5.2985-18.682 13.233z" fill="#a76358"/>
  <path d="m854.99 645.53 197.41 169.48-185.03-183.43-12.388 13.944z" fill="#9c5740"/>
  <path d="m722.36 711.49 81.732 199.27-68.499-203.55c-5.3726-2.2898-9.9337-1.7229-13.233 4.2812z" fill="#da8b7e"/>
  <path d="m432.81 618.94-147.72 146.24 183.17-118.17c-8.0956-13.077-9.925-32.421-35.452-28.066z" fill="#ac6c60"/>
  <path d="m485.99 595.3-88.631 101.93 116.7-84.199c-4.7692-9.4158-6.4319-21.207-28.066-17.726z" fill="#7a453d"/>
  <path d="m655.87 203.85c0-5.9087 20.68-180.22 20.68-180.22l5.9087 181.69-26.589-1.4772z" fill="#8c5c48"/>
  <path d="m945.39 400.32 265.89-104.88-277.71 82.722 11.817 22.158z" fill="#e0b7b2"/>
  <path d="m945.8 414.16 252.19-59.638-258.28 36.553 6.0828 23.084z" fill="#5c3c30"/>
  <path d="m889.26 392.93 295.44-115.22-276.23 144.76c-13.783-5.2344-21.985-13.956-19.203-29.544z" fill="#9d6951"/>
  <path d="m452.02 254.07-54.656-181.69 82.722 171.35-28.066 10.34z" fill="#e19e8b"/>
  <path d="m471.22 248.17-31.021-150.67 48.747 156.58-17.726-5.9087z" fill="#ba7865"/>
  <path d="m927.67 638.14 242.26 134.42-226.01-161.01-16.249 26.589z" fill="#3a2525"/>
  <path d="m875.05 623.34 300.78 172.86-279.03-197.58c-9.4213 3.5525-20.633 11.834-21.753 24.725z" fill="#905445"/>
  <path d="m540.65 236.35-13.295-215.67-10.34 212.71c7.8783 2.3326 15.757 7.3608 23.635 2.9544z" fill="#4c2c28"/>
  <path d="m405.92 304.16-154.8-206.66 175.78 181.69c-3.8777 10.661-8.9034 20.46-20.981 24.971z" fill="#754a40"/>
  <path d="m432.81 282.14-100.45-174.31 135.9 158.06c-7.7294 9.5044-17.438 17.03-35.452 16.249z" fill="#a8654e"/>
  <path d="m922.62 547.16c7.3859 0 327.07 58.48 327.07 58.48l-313.35-93.107c-14.694 9.1962-11.914 22.668-13.716 34.627z" fill="#c27e70"/>
  <path d="m948.03 426.9 270.64-28.066-52.692-6.3686-224.01 13.754 6.0546 20.68z" fill="#6c4232"/>
  <path d="m462.36 468.27c-8.8631 0-125.56 2.9544-125.56 2.9544l119.65-23.635c12.712 6.2221 9.4271 13.444 5.9087 20.68z" fill="#7a4848"/>
  <path d="m917.33 586.44c7.3859 0 271.8 38.407 271.8 38.407l-79.768-29.544-183.17-38.407c-16.138 4.1977-6.0845 19.62-8.8631 29.544z" fill="#b87d6d"/>
  <path d="m896.65 598.26 209.76 113.74-194.99-135.9-14.772 22.158z" fill="#603e2c"/>
  <path d="m868.58 602.69 180.22 88.631-168.4-110.79c-12.625 3.767-11.088 13.434-11.817 22.158z" fill="#ca8576"/>
  <path d="m901.08 580.53 199.42 22.158-202.37-41.361c-2.004 6.4011-3.2155 12.802 2.9544 19.203z" fill="#c6847c"/>
  <path d="m815.4 546.56 172.83 97.494-155.1-122.61c-10.739 3.0037-16.326 11.732-17.726 25.112z" fill="#b36963"/>
  <path d="m852.07 630.69 263.2 171.41-241.04-194.53c-12.191 4.55-18.773 9.7562-22.158 23.113z" fill="#db9589"/>
  <path d="m590.87 666.21-44.315 144.76 79.768-128.51c-8.9588-10.276-21.316-14.775-35.452-16.249z" fill="#55342b"/>
  <path d="m974.94 435.77 259.98-28.066-293.18 10.34c-4.5312 7.8783 0.0869 15.757 2.4322 23.635l30.762-5.9087z" fill="#3c2726"/>
  <path d="m695.89 474.86-30.358 50.596 51.375-36.585c-1.3202-10.356-7.2613-16.091-21.017-14.011z" fill="#582c2d"/>
  <path d="m684.22 454.62-59.159 16.346 47.483-38.92c8.7819 3.9387 18.041 7.5271 11.676 22.574z" fill="#703a36"/>
  <path d="m723.14 447.61 19.46 31.915 10.898-33.471c-10.119-5.0915-20.238-6.7672-30.358 1.5568z" fill="#633832"/>
  <path d="m789.3 424.26 96.522-66.164-108.98 32.693c-2.6836 20.043 5.0387 26.558 12.454 33.471z" fill="#a96661"/>
  <path d="m577.57 417.26-38.142 23.352 54.488 2.3352c3.686-12.042 1.6481-21.904-16.346-25.687z" fill="#663634"/>
  <path d="m513.75 429.71-79.397 45.926 91.073-17.125c7.3762-18.88-1.758-24.163-11.676-28.801z" fill="#542e2f"/>
  <path d="m519.97 386.12-56.045-1.5568 51.375 19.46c11.167-4.7665 10.014-11.073 4.6704-17.903z" fill="#593631"/>
  <path d="m619.61 402.47-39.699-25.687 49.818 7.784c3.892 9.6003 0.51894 15.568-10.119 17.903z" fill="#7d4e4c"/>
  <path d="m690.44 396.24 6.2272-52.153 19.46 51.375c-8.0402 7.571-16.609 7.7375-25.687 0.7784z" fill="#8c574f"/>
  <path d="m643.11 375.32-8.7075-63.925 30.358 58.38c0.8558 4.5861-15.947 10.574-21.65 5.5449z" fill="#7c4a46"/>
  <path d="m823.55 439.05 90.295 10.898-86.403 14.011c-7.368-8.303-7.9307-16.606-3.892-24.909z" fill="#91584b"/>
  <path d="m869.48 443.72c-8.1914-7.5618-13.461-16.097-6.2272-28.801l169.69-24.909-163.46 53.71z" fill="#b36f5f"/>
  <path d="m717.69 523.9-45.926 21.017 51.375-1.5568c9.3372-12.435 0.1077-18.173-5.4488-19.46z" fill="#7f4843"/>
  <path d="m753.49 545.69 59.159 67.721-33.471-87.96c-11.81 0.94681-21.126 6.3477-25.687 20.238z" fill="#683933"/>
  <path d="m821.99 579.16 57.602 38.142-49.818-49.039c-4.8751 1.8589-7.5788 5.4066-7.784 10.898z" fill="#815045"/>
  <path d="m775.29 467.85s13.233 33.471 14.011 28.801 6.2272-31.915 6.2272-31.915c-6.985-1.1117-14.234-4.6025-20.238 3.1136z" fill="#462928"/>
  <path d="m618.83 466.29-16.346 49.818-4.6704-51.375c5.8411-4.1392 12.102-6.6011 21.017 1.5568z" fill="#572e30"/>
  <path d="m550.33 466.29-21.017 55.267 45.147-42.034c-4.3251-13.707-13.634-14.954-24.13-13.233z" fill="#532d2d"/>
  <path d="m498.96 493.54-17.125 38.142 28.801-28.801c2.2981-9.3037-3.6875-10.324-11.676-9.3408z" fill="#412a2b"/>
  <path d="m538.65 528.57-28.022 53.71 49.818-35.807c-2.0717-14.046-10.409-18.347-21.795-17.903z" fill="#4d282b"/>
  <path d="m695.11 557.37-39.699 6.2272 42.034 7.784c4.587-5.0831 6.4569-9.9573-2.3352-14.011z" fill="#6d3d37"/>
  <path d="m656.97 587.73-39.699 18.682 43.591 4.6704c8.867-8.3487 5.8909-16.039-3.892-23.352z" fill="#743f39"/>
  <path d="m569.01 564.37 3.892 35.028 15.568-32.693c-7.6677-8.455-13.859-7.3141-19.46-2.3352z" fill="#43272b"/>
  <path d="m602.48 622.75c1.5568 3.892 0 51.375 0 51.375l31.136-44.369c-9.7727-7.183-19.822-12.155-31.136-7.0056z" fill="#4c2b2b"/>
  <path d="m527.76 576.83-34.25 66.943 63.829-46.704c-4.2473-12.029-8.1455-24.385-29.579-20.238z" fill="#522a2b"/>
  <path d="m713.8 565.15-45.926 72.391 69.278-50.596c-3.1273-11.374-11.409-18.2-23.352-21.795z" fill="#683630"/>
  <path d="m759.72 601.74 77.062 113.65-50.596-129.21c-11.845-0.60565-20.846 4.2402-26.466 15.568z" fill="#8d5447"/>
  <path d="m655.42 500.54-9.3408 36.585 24.13-26.466c0.21755-13.668-6.8232-12.819-14.79-10.119z" fill="#613b35"/>
  <path d="m655.42 468.63-19.46 32.693 32.693-22.574c0.11821-7.9022-4.012-11.556-13.233-10.119z" fill="#684343"/>
  <path d="m743.37 374.44c1.5568-7.784 25.687-66.943 25.687-66.943l-7.0056 68.499c-6.6049 3.2576-13.099 5.4116-18.682-1.5568z" fill="#915a53"/>
  <path d="m656.19 650 24.909 107.42 6.2272-114.43c-10.789-2.1744-21.376-2.1359-31.136 7.0056z" fill="#77443e"/>
  <path d="m706.01 649.22 29.579 88.738-3.892-95.744c-8.9058 0.0458-18.247-2.8112-25.687 7.0056z" fill="#82463c"/>
  <path d="m716.13 609.52 2.3352 45.147 17.125-41.255c-5.855-4.456-12.059-7.1646-19.46-3.892z" fill="#5c312d"/>
  <path d="m741.04 644.55 51.375 76.283-24.909-86.403c-9.5398 0.21409-19.421-1.0724-26.466 10.119z" fill="#975d52"/>
  <path d="m820.44 632.87 162.69 136.22-137.78-157.24c-16.037 1.2892-20.533 11.108-24.909 21.017z" fill="#b87062"/>
  <path d="m802.53 492.76 40.477 41.255-26.466-53.71c-7.0228 0.38771-12.169 3.7784-14.011 12.454z" fill="#7a4943"/>
  <path d="m638.14 678.02 14.772 41.361-1.4772-42.838c-4.742-2.6121-9.0668-1.0521-13.295 1.4772z" fill="#59342e"/>
  <path d="m553.63 397.05-51.392-67.641 78.29 48.747c0.12 9.9696-8.412 22.514-26.899 18.894z" fill="#6f4038"/>
  <path d="m685.41 239.3c0-7.3859 11.817-190.56 11.817-190.56l-36.929 187.6 25.112 2.9544z" fill="#4e2f2a"/>
  <path d="m669.16 285.1-5.9087-203.85-22.158 203.85c10.321 6.7587 19.819 7.7571 28.066 0z" fill="#c37c63"/>
  <path d="m643.56 315.09 3.4406-139.3 23.635 141.81c-0.8191 5.9026-25.772 6.2193-27.075-2.5049z" fill="#b1797c"/>
  <path d="m782.9 243.73 76.813-237.83-107.83 224.53c8.8604 10.844 19.048 15.936 31.021 13.295z" fill="#855547"/>
  <path d="m762.22 282.14 56.133-194.99-85.676 190.56c8.3397 8.0124 18.091 9.9088 29.544 4.4315z" fill="#d8917c"/>
  <path d="m710.52 339.75 35.452-134.42-10.34 138.85c-2.7723 3.1961-17.462 4.6127-25.112-4.4315z" fill="#9e6358"/>
  <path d="m883.35 279.19 258.51-147.72-240.78 168.4c-13.207-2.0281-17.697-9.8672-17.726-20.68z" fill="#bb8887"/>
  <path d="m855.29 308.73 295.44-180.22-273.28 202.37c-8.9597-5.9694-22.683-7.6518-22.158-22.158z" fill="#b0776b"/>
  <path d="m906.43 316.58c33.975-17.726 217.7-102.39 217.7-102.39l-202.55 124.55c-10.577-2.7797-13.233-12.16-15.148-22.158z" fill="#4e2425"/>
  <path d="m819.83 348.61 194.99-124.08-181.69 150.67c-8.4145-6.5396-17.018-12.969-13.295-26.589z" fill="#9f634f"/>
  <path d="m834.61 257.03 149.2-127.04-134.42 141.81c-5.4408-4.2779-13.081-5.8065-14.772-14.772z" fill="#ba888b"/>
  <path d="m839.27 265.97c5.9087-4.4315 147.49-107.91 147.49-107.91l-125.64 131.94c-11.31-2.2939-20.239-10.861-21.848-24.024z" fill="#9e6657"/>
  <path d="m810.97 307.25 125.56-149.2-100.45 162.49c-3.6661 2.5077-26.582 0.0825-25.112-13.295z" fill="#8f6f73"/>
  <path d="m774.04 353.05 79.768-67.95-69.427 79.768c-4.6594-2.5532-12.365-1.625-10.34-11.817z" fill="#b1756d"/>
  <path d="m741.54 397.36 41.361-41.361c-16.934 33.276-21.169 36.919-29.544 50.224-4.9257-1.2278-10.827-0.74881-11.817-8.8631z" fill="#5e4137"/>
  <path d="m827.22 258.51c26.589-14.772 90.108-186.12 90.108-186.12l-106.36 171.35 16.249 14.772z" fill="#a27b75"/>
  <path d="m784.38 296.91 115.22-212.71-94.539 227.49c-14.814 9.3331-15.345-7.0435-20.68-14.772z" fill="#c99184"/>
  <path d="m777 319.07 59.087-135.9-45.793 140.33c-7.6842 3.0766-10.716-0.36075-13.295-4.4315z" fill="#9a6249"/>
  <path d="m509.63 276.23-50.224-223.05 84.199 218.62c-10.205 9.3142-21.697 9.628-33.975 4.4315z" fill="#b36e5a"/>
  <path d="m525.88 339.75-82.722-152.15 113.74 134.42c-3.5615 11.84-10.966 20.318-31.021 17.726z" fill="#8a4b3a"/>
  <path d="m675.07 354.52 13.295-64.996 5.9087 67.95c-7.2288 3.1539-14.033 4.1853-19.203-2.9544z" fill="#744742"/>
  <path d="m561.33 283.62-29.544-159.54 48.747 162.49c-6.4011 1.7466-12.802 7.0182-19.203-2.9544z" fill="#9c6849"/>
  <path d="m605.64 221.58c0-7.3859 7.3859-158.06 7.3859-158.06l25.112 162.49c-13.548 5.3106-22.997 0.37535-32.498-4.4315z" fill="#402928"/>
  <path d="m621.89 248.17c-1.4772-10.34-38.407-211.24-38.407-211.24l13.295 217.15c9.7082 0.51437 22.139 6.0846 25.112-5.9087z" fill="#d99587"/>
  <path d="m703.14 212.71 25.112-153.63-4.4315 161.01c-2.0792 4.9196-15.167 2.6667-20.68-7.3859z" fill="#9f5d43"/>
  <path d="m689.84 295.44c0-5.9087 11.817-125.56 11.817-125.56l10.34 134.42c-2.1421 5.2398-19.01 2.5682-22.158-8.8631z" fill="#9b6058"/>
  <path d="m943.92 360.43 196.46-103.4-205.33 85.676 8.8631 17.726z" fill="#815649"/>
  <path d="m934.56 370.37c14.772-4.4315 235.37-100.04 235.37-100.04l-242.23 85.474 6.8637 14.57z" fill="#462e2b"/>
  <path d="m856.76 366.34 240.78-103.4-230.44 134.42c-8.8554-5.6077-9.5868-18.324-10.34-31.021z" fill="#af745c"/>
  <path d="m844.95 488.95 150.67 17.726 42.838-2.9544-62.041-11.817-122.61-22.158c-12.873 4.1122-12.071 14.524-8.8631 19.203z" fill="#633d2f"/>
  <path d="m890.74 522.92 252.6 39.884-254.07-4.4315c-7.8837-11.817-3.9351-23.635 1.4772-35.452z" fill="#bf7161"/>
  <path d="m887.39 475.65 211.63-16.249-215.67-4.4315c-1.4319 7.202-3.5769 14.483 4.0334 20.68z" fill="#905953"/>
  <path d="m935.05 454.97 288.05-8.8631-291-16.249c-3.4663 8.3707-6.7647 16.741 2.9544 25.112z" fill="#b47765"/>
  <path d="m395.88 339.75-214.19-174.31 240.78 147.72-26.589 26.589z" fill="#d98e7a"/>
  <path d="m378.16 367.82-211.24-106.36 226.01 93.062-14.772 13.295z" fill="#ce806d"/>
  <path d="m431.34 378.16-224.53-127.04 240.78 98.971c-1.5566 9.3555-1.933 18.711-16.249 28.066z" fill="#b16558"/>
  <path d="m475.65 361.91-125.56-96.017 146.24 78.29c-2.8811 6.9646 0.63398 15.612-20.68 17.726z" fill="#784832"/>
  <path d="m480.08 319.07-78.29-171.35 104.88 159.54c-4.9391 10.043-12.357 16.23-26.589 11.817z" fill="#b0664b"/>
  <path d="m449.06 313.16-158.06-196.46 177.26 183.17c-2.0204 8.1865-3.0987 17.18-19.203 13.295z" fill="#c98675"/>
  <path d="m304.3 361.91c-14.772-10.34-155.1-76.813-155.1-76.813l236.35 84.199-7.3859 19.203-73.859-26.589z" fill="#a06251"/>
  <path d="m401.79 381.11-144.76-47.27 150.67 35.452c3.7198 3.9391 1.7881 7.8783-5.9087 11.817z" fill="#a5625b"/>
  <path d="m412.13 452.02c-5.9087 0-166.92-22.158-166.92-22.158l166.92-2.9544c6.7892 7.7535 4.53 16.33 0 25.112z" fill="#a96a60"/>
  <path d="m564.28 623.37-4.4315 64.996 25.112-57.61c-4.8462-6.3006-11.683-8.869-20.68-7.3859z" fill="#71423d"/>
  <path d="m506.67 648.48-125.56 147.72 146.24-137.38c-3.7034-6.6369-9.6636-11.017-20.68-10.34z" fill="#845343"/>
  <path d="m537.69 627.8-42.838 87.154 60.564-78.29c-2.8977-5.589-6.6498-10.43-17.726-8.8631z" fill="#744243"/>
  <path d="m437.24 534.74-155.1 76.813 174.31-53.178c1.5842-12.922-1.2109-23.077-19.203-23.635z" fill="#815245"/>
  <path d="m462.36 583.49-87.154 63.519 76.813-73.859c4.5591 1.5928 11.54-0.85089 10.34 10.34z" fill="#6f3e39"/>
  <path d="m491.9 533.26-175.78 96.017 190.56-72.382c5.9624-15.136-2.1716-20.874-14.772-23.635z" fill="#945955"/>
  <path d="m459.4 487.47c-5.9087 1.4772-76.813 47.27-76.813 47.27l85.676-29.544c1.5145-8.1431 1.88-15.712-8.8631-17.726z" fill="#613a35"/>
  <path d="m423.95 475.65-125.56 32.498 129.99-7.3859c8.7353-10.521 6.5474-18.742-4.4315-25.112z" fill="#6a4337"/>
  <path d="m407.7 387.02-313.16-103.4 310.21 124.08c3.7585-6.2001 7.3188-12.45 2.9544-20.68z" fill="#a26459"/>
  <path d="m478.61 425.43-122.61-11.817 122.61-16.249c11.477 9.3555 8.5078 23.381 0 28.066z" fill="#955c56"/>
  <path d="m567.24 234.87c0-7.3859-13.295-163.97-13.295-163.97l35.452 161.01c-5.7859 4.8247-11.331 10.227-22.158 2.9544z" fill="#9a5b3b"/>
  <path d="m596.78 298.39-23.635-155.1 53.178 153.63c-8.5859 9.9569-18.905 6.9116-29.544 1.4772z" fill="#ab664a"/>
  <path d="m608.6 353.05-22.158-88.631 42.838 82.722c-4.1966 5.5654-10.279 8.6163-20.68 5.9087z" fill="#9a5f57"/>
  <path d="m739.48 708.38c5.4488 10.119 109.75 196.16 109.75 196.16l-93.798-201.61c-6.9443-2.3694-13.943-0.67917-15.957 5.4488z" fill="#9d5f54"/>
  <path d="m755.44 701.76 98.468 208.22-81.343-215.23c-3.9959-0.60052-13.268-1.8184-17.125 7.0056z" fill="#bc7875"/>
  <path d="m821.88 661.7 177.59 136.98-163.67-153.09c-10.333 2.103-11.151 9.4749-13.917 16.118z" fill="#bd7b63"/>
  <path d="m667.09 720.83 5.4488 146.34-23.352-144c5.9678-4.1515 11.936-4.9299 17.903-2.3352z" fill="#9b6269"/>
  <path d="m645.3 703.71-21.795 282.56 10.119-286.45c5.3154-2.4033 8.95-0.43681 11.676 3.892z" fill="#a9695f"/>
  <path d="m555.78 708.38-70.835 164.24 88.738-161.13-17.903-3.1136z" fill="#d6887c"/>
  <path d="m557.34 700.59-54.488 108.98 71.613-103.53c-4.4664-3.1711-7.2911-8.1331-17.125-5.4488z" fill="#b06e62"/>
  <path d="m580.1 686.39-29.774 59.353 21.795-64.607c2.2352-1.8342 7.7652 0.24134 7.9786 5.2542z" fill="#603731"/>
  <path d="m506.93 707.99-114.62 252.59 147.51-243.45c-10.746-3.2223-19.832-7.7715-32.888-9.1462z" fill="#d69b95"/>
  <path d="m510.24 704.68-93.019 209.2 122.4-199.27c-6.2912-4.866-15.868-10.87-29.385-9.9246z" fill="#c58279"/>
  <path d="m521.53 687.36-68.499 147.9 91.073-140.11c-6.6925-3.3628-9.7906-10.043-22.574-7.784z" fill="#c18489"/>
  <path d="m544.88 657.78-77.062 162.69 98.857-154.9c-4.2127-6.6645-11.356-9.4218-21.795-7.784z" fill="#7d4840"/>
 </g>
</svg>
